<svg width="568" height="33" viewBox="0 0 568 33" fill="none" xmlns="http://www.w3.org/2000/svg">
<g clip-path="url(#clip0_350_48)">
<path d="M260.309 4.06738C259.931 4.75749 259.691 5.51332 259.601 6.2936H259.274C259.274 6.2936 258.744 3.26475 254.81 3.85317C252.338 4.50666 251.494 7.70904 253.297 9.49056C254.355 10.3038 255.551 10.9227 256.829 11.3182C257.61 11.5188 262.175 13.2163 261.038 16.8498C260.711 19.4502 259.197 21.0284 256.651 21.6927C254.618 22.2956 252.427 22.0834 250.549 21.1016L249.615 20.5267C249.943 20.101 250.145 19.1709 250.298 18.0863H250.65C251.221 19.2251 252.04 20.1769 253.297 20.703C254.608 21.0528 255.818 21.1287 256.829 20.627C258.367 20.101 258.946 18.7506 258.998 16.923C259.047 15.0249 257.534 14.1192 255.72 13.4169C252.693 12.4923 250.497 11.0389 250.169 8.35982C250.169 5.95736 251.104 4.29244 253.07 3.37864C254.734 2.65465 256.425 2.67905 258.14 2.92852C258.97 3.05841 259.734 3.45912 260.309 4.06738Z" fill="#314249"/>
<path d="M262.83 3.00443L267.848 11.1175L269.665 9.7156L265.906 3.08035C264.894 3.34193 263.828 3.31562 262.83 3.00443Z" fill="#314249"/>
<path d="M269.665 15.9983L271.959 14.1463L272.161 21.6574H269.463L269.665 15.9983Z" fill="#314249"/>
<path d="M282.525 2.72785C282.715 9.04004 282.569 15.3578 282.088 21.6547H284.03C283.803 17.1725 283.757 12.2672 283.828 7.05825L297.999 22.0289H298.404C298.253 15.0954 298.303 8.61199 298.808 3.08035H296.896C297.098 7.86178 297.189 12.626 297.169 17.3731L282.929 2.71158L282.525 2.72785Z" fill="#314249"/>
<path d="M310.567 2.72784H309.95C306.773 9.93795 303.747 16.6464 301.275 21.6276L303.244 21.6791L306.041 14.4934H313.127L316.014 21.6547L318.94 21.6791C316.569 16.8118 313.643 10.0329 310.567 2.72784ZM306.557 13.3437L309.609 6.48339L312.785 13.3437H306.557Z" fill="#314249"/>
<path d="M279.75 2.85259C281.061 1.32597 280.433 0 280.433 0C280.433 0 282.891 3.85588 278.062 7.78496L274.51 10.7379C273.907 11.1907 269.047 14.8947 267.829 16.3454C266.518 17.8748 267.173 19.2007 267.173 19.2007C267.173 19.2007 264.671 15.3449 269.523 11.4158C271.981 9.41191 272.716 8.73673 273.019 8.51167L279.75 2.85259Z" fill="#6B62A8"/>
<path d="M306.331 25.1337H306.079C304.741 28.0866 303.482 30.866 302.446 32.9187L303.28 32.9431L304.438 29.9901H307.415L308.625 32.9431H309.86C308.857 30.9419 307.617 28.1625 306.331 25.1337ZM304.667 29.5129L305.951 26.6847L307.29 29.5129H304.667Z" fill="#314249"/>
<path d="M250.145 25.0334C249.792 28.0622 249.413 31.1832 249.036 32.8427H249.792L250.322 27.2108L253.349 32.8671H253.524L256.728 27.1159L257.274 32.8726L258.206 32.7993L257.307 24.9466L253.827 31.091H253.625L250.145 25.0334Z" fill="#314249"/>
<path d="M263.513 25.2177C263.639 28.0947 263.691 30.8226 263.513 32.8753H267.698V32.2245C266.941 32.4767 265.786 32.4767 264.494 32.4523V29.1387C265.434 29.0749 266.378 29.0749 267.318 29.1387V28.4879C266.258 28.6126 265.149 28.7374 264.494 28.6615V25.7601C265.174 25.6841 266.406 25.7845 267.646 25.8848V25.2177H263.513Z" fill="#314249"/>
<path d="M278.567 25.6326C277.908 25.3419 277.192 25.2002 276.472 25.2178L272.891 25.2422V32.9187H275.917C275.917 32.9187 279.851 33.1437 280.23 29.8383C280.61 26.5329 278.567 25.6326 278.567 25.6326ZM279.171 29.9901C279.094 31.0911 278.288 31.7906 277.204 32.3167C276.119 32.8427 273.926 32.417 273.926 32.417V25.7845C274.723 25.6365 275.536 25.5855 276.346 25.6326C277.734 25.7086 278.438 26.3105 278.867 27.086C279.296 27.8616 279.222 28.8892 279.171 29.9901Z" fill="#314249"/>
<path d="M285.639 25.2177C285.666 27.5199 285.666 30.123 285.639 32.8753H286.732C286.631 30.2993 286.631 27.7467 286.732 25.2177H285.639Z" fill="#314249"/>
<path d="M298.663 31.7255L298.639 32.4007C297.956 32.7585 297.203 32.964 296.432 33.0029C295.661 33.0418 294.891 32.9131 294.175 32.6258C292.208 31.9994 291.78 30.3237 291.856 28.2873C292.512 26.0095 293.872 25.2584 295.538 25.1581C296.654 25.0453 297.78 25.1739 298.841 25.535L298.477 26.4108C298.154 26.0259 297.723 25.7432 297.24 25.5974C296.722 25.438 296.173 25.4027 295.639 25.4941C295.104 25.5855 294.599 25.8012 294.164 26.1234C293.829 26.3701 293.552 26.6859 293.351 27.0491C293.151 27.4124 293.032 27.8144 293.003 28.2276C292.93 29.6295 293.003 30.9039 293.888 31.6822C294.174 32.0369 294.546 32.313 294.97 32.4839C295.394 32.6549 295.855 32.7149 296.309 32.6583C296.744 32.6672 297.177 32.5892 297.581 32.429C297.986 32.2688 298.354 32.0296 298.663 31.7255Z" fill="#314249"/>
<path d="M314.728 25.234L314.752 32.8942H318.964V32.2679C317.929 32.3682 316.872 32.4441 315.736 32.4685V25.2828L314.728 25.234Z" fill="#314249"/>
<path d="M318.964 32.2679C317.929 32.3682 316.872 32.4441 315.736 32.4685L318.964 32.2679Z" fill="#314249"/>
</g>
<defs>
<clipPath id="clip0_350_48">
<rect width="69.9286" height="33" fill="white" transform="translate(249.036)"/>
</clipPath>
</defs>
</svg>
